<?xml version="1.0" standalone="no"?>
   <!DOCTYPE svg PUBLIC "-//W3C//DTD SVG 1.1//EN"     
   "http://www.w3.org/Graphics/SVG/1.1/DTD/svg11.dtd"><svg id="svg" version="1.1" width="1200" height="1200" xmlns="http://www.w3.org/2000/svg"><path d="M576.225 124.229 C 573.554 127.447,572.703 136.678,573.439 154.432 C 574.023 168.495,574.500 180.129,574.500 180.286 C 574.500 180.442,532.183 183.001,480.463 
185.972 C 428.743 188.943,385.278 192.527,383.875 193.937 C 382.472 195.347,387.301 286.950,394.606 397.500 C 401.911 508.050,407.913 603.563,407.944 609.750 C 407.994 619.748,407.170 621.000,400.543 621.000 C 396.442 621.000,386.895 622.656,379.327 624.680 L 365.569 628.360 367.652 646.309 C 368.798 656.181,371.245 666.676,373.090 669.630 C 378.941 678.999,394.845 684.085,424.352 686.023 C 442.347 687.205,453.000 689.152,453.000 691.259 C 453.000 694.684,380.337 
923.742,369.533 954.375 C 358.033 986.982,355.854 1004.133,361.374 1018.587 C 367.324 1034.168,376.809 1041.000,392.490 1041.000 C 407.907 1041.000,417.493 
1033.097,426.014 1013.360 C 434.932 992.706,472.219 871.298,495.380 787.500 C 505.413 751.200,515.653 714.240,518.136 705.366 L 522.649 689.231 545.512 691.303 C 558.087 692.442,568.928 693.928,569.605 694.605 C 571.057 696.057,577.226 760.070,582.028 823.500 C 583.901 848.250,586.799 872.911,588.467 878.302 C 
592.183 890.313,605.172 897.691,620.361 896.420 C 635.212 895.178,638.884 887.025,639.017 855.000 C 639.133 827.059,645.640 754.391,651.389 716.837 L 655.038 693.000 682.962 693.000 C 709.444 693.000,710.969 693.349,712.492 699.750 C 742.048 823.960,792.268 1002.442,804.534 1026.868 C 811.270 1040.282,825.718 1049.973,839.005 1049.989 C 852.616 1050.005,857.633 1047.411,862.611 1037.785 C 869.186 1025.071,867.903 1009.309,857.991 981.000 C 846.333 947.706,765.000 
697.535,765.000 694.972 C 765.000 693.887,777.825 693.000,793.500 693.000 C 830.068 693.000,834.559 689.646,832.611 663.793 C 831.557 649.807,829.812 645.209,823.486 639.750 C 819.185 636.038,812.277 633.000,808.136 633.000 L 800.606 633.000 802.401 594.750 C 808.822 457.928,813.804 367.748,819.473 285.727 C 823.038 234.152,825.048 191.048,823.941 189.941 C 818.897 184.897,769.968 179.770,710.250 178.029 L 645.000 176.126 644.954 153.313 C 644.929 140.766,643.916 
128.995,642.704 127.156 C 641.492 125.317,626.903 122.864,610.285 121.704 C 584.924 119.934,579.453 120.339,576.225 124.229 M623.250 133.750 L 633.000 135.272 633.000 155.815 C 633.000 179.549,632.498 180.000,606.076 180.000 C 592.946 180.000,588.192 178.828,586.821 175.255 C 583.619 166.911,584.799 132.567,588.328 131.391 C 591.869 130.210,607.202 131.246,623.250 133.750 M776.492 192.355 C 799.363 194.653,810.983 197.072,812.010 199.747 C 812.849 201.933,811.393 
233.147,808.774 269.111 C 802.784 351.367,795.967 470.148,792.129 559.166 C 790.500 596.932,788.418 628.582,787.501 629.499 C 785.702 631.298,423.414 622.516,421.789 620.634 C 420.805 619.496,393.191 202.881,394.045 202.064 C 394.836 201.308,636.245 188.932,664.500 188.200 C 703.471 187.190,737.743 188.461,776.492 192.355 M503.130 213.940 C 502.298 216.107,502.281 221.350,503.092 225.592 L 504.566 233.303 467.533 235.490 C 447.165 236.693,429.515 238.263,428.311 238.978 C 427.108 239.693,427.368 242.578,428.889 245.389 C 431.082 249.440,441.098 351.241,441.019 368.671 C 441.003 372.133,448.039 372.485,482.399 370.741 C 528.995 368.375,545.808 365.424,550.686 358.753 C 552.526 356.236,555.699 336.250,557.736 314.338 C 559.773 292.427,562.628 265.788,564.080 255.139 C 567.524 229.884,565.276 227.034,544.005 229.692 C 528.531 231.625,528.000 231.451,528.000 224.446 C 528.000 220.461,526.380 215.580,524.400 213.600 C 519.576 208.776,505.022 209.009,503.130 213.940 M521.459 224.281 C 522.187 229.384,520.924 231.000,516.209 231.000 C 511.539 231.000,510.000 229.086,510.000 223.280 
C 510.000 213.433,520.036 214.309,521.459 224.281 M559.243 243.000 C 558.543 263.471,548.075 350.123,545.785 354.401 C 544.343 357.096,538.064 360.273,531.831 361.460 C 519.366 363.833,449.060 368.866,447.566 367.491 C 447.052 367.018,444.307 338.902,441.467 305.011 L 436.302 243.390 458.901 241.612 C 471.331 240.635,486.563 239.181,492.750 238.382 L 504.000 236.929 504.000 252.059 C 504.000 268.539,508.095 272.836,518.495 267.270 C 522.311 265.228,525.229 259.472,526.597 251.289 C 529.173 235.878,531.919 233.701,547.500 234.717 C 558.172 235.413,559.472 236.330,559.243 243.000 M729.000 237.107 C 718.275 238.312,681.825 239.591,648.000 239.948 C 580.125 240.665,575.636 245.212,642.320 245.701 C 685.874 246.020,759.467 240.885,769.462 236.830 C 776.961 233.788,757.336 233.922,729.000 237.107 M522.000 247.179 C 522.000 253.694,520.292 258.014,517.255 259.179 C 510.062 261.939,510.000 261.853,510.000 249.000 C 510.000 239.000,511.000 237.000,516.000 237.000 C 520.821 237.000,522.000 239.000,522.000 247.179 M737.157 283.220 C 722.668 291.892,709.235 300.565,707.307 302.493 C 700.933 308.867,711.485 306.475,731.484 297.014 L 750.469 288.033 743.659 299.266 C 739.913 305.445,735.433 312.863,733.702 315.750 C 729.615 322.572,723.613 322.360,712.500 315.000 C 702.754 308.546,699.000 307.577,699.000 311.517 C 699.000 312.902,704.385 316.614,710.966 319.767 C 717.547 322.920,722.942 326.850,722.956 328.500 C 722.970 330.150,711.987 346.298,698.550 364.385 L 674.119 397.269 661.322 383.135 C 654.284 375.361,647.840 369.000,647.002 369.000 C 646.164 369.000,639.036 377.775,631.161 388.500 C 623.286 399.225,616.091 407.974,615.171 407.942 C 614.252 407.910,606.073 393.560,596.995 376.053 C 587.917 358.545,579.252 344.305,577.739 344.407 C 576.226 344.510,569.345 358.522,562.447 375.547 C 555.548 392.571,547.566 411.900,544.709 418.500 L 539.513 430.500 
529.215 410.250 C 523.551 399.113,518.413 390.000,517.796 390.000 C 517.180 390.000,512.906 399.113,508.298 410.250 C 503.691 421.388,498.987 431.610,497.845 432.966 C 496.702 434.322,491.616 426.560,486.542 415.716 C 481.467 404.872,476.623 396.000,475.778 396.000 C 474.932 396.000,469.263 411.525,463.181 430.500 C 457.098 449.475,451.288 465.000,450.269 465.000 C 449.250 465.000,445.079 459.600,441.000 453.000 C 434.153 441.921,429.000 437.752,429.000 443.290 C 
429.000 444.550,433.670 452.514,439.377 460.989 C 448.607 474.695,449.436 477.507,446.877 486.429 C 443.293 498.927,443.232 504.000,446.666 504.000 C 448.132 504.000,450.279 498.952,451.437 492.781 L 453.542 481.562 465.024 495.028 C 471.339 502.434,477.109 507.820,477.845 506.997 C 478.581 506.174,482.893 494.243,487.426 480.485 C 491.960 466.726,496.646 456.601,497.839 457.985 C 499.033 459.368,503.270 468.239,507.255 477.699 C 511.240 487.158,515.876 494.921,517.557 494.949 C 519.238 494.977,524.479 484.875,529.204 472.500 C 533.929 460.125,538.670 450.000,539.739 450.000 C 540.809 450.000,546.787 460.313,553.024 
472.918 C 559.261 485.523,565.425 494.635,566.722 493.168 C 568.019 491.701,578.884 475.313,590.866 456.750 C 602.848 438.188,613.157 423.000,613.775 423.000 C 614.393 423.000,618.484 430.075,622.866 438.723 L 630.833 454.445 649.890 433.473 C 660.372 421.938,668.959 411.488,668.974 410.250 C 668.988 409.013,671.025 408.000,673.500 408.000 C 675.975 408.000,678.026 409.013,678.059 410.250 C 678.178 414.818,708.076 444.000,712.637 444.000 C 715.234 444.000,724.508 
437.239,733.245 428.976 L 749.130 413.952 756.788 419.976 C 761.000 423.289,765.761 426.000,767.367 426.000 C 770.631 426.000,777.000 403.422,777.000 391.849 C 777.000 387.727,778.350 383.520,780.000 382.500 C 787.486 377.874,782.410 374.327,770.931 376.163 C 744.460 380.396,729.000 384.655,729.000 387.715 C 729.000 389.485,732.525 395.555,736.834 401.204 L 744.668 411.475 736.084 420.505 C 731.363 425.472,723.905 431.414,719.511 433.710 C 710.351 438.496,708.069 
437.102,688.497 414.771 L 677.341 402.043 702.227 368.271 C 715.915 349.697,727.969 333.461,729.015 332.192 C 730.061 330.922,736.704 331.926,743.778 334.422 C 750.851 336.917,757.669 338.323,758.928 337.544 C 760.188 336.766,762.192 322.390,763.383 305.597 C 764.573 288.804,766.243 273.250,767.095 271.032 C 769.540 264.661,765.245 266.409,737.157 283.220 M635.250 281.644 C 610.913 284.088,591.000 287.194,591.000 288.544 C 591.000 289.895,592.896 291.000,595.214 291.000 C 603.473 291.000,682.195 281.805,683.287 280.713 C 686.591 277.409,675.211 277.630,635.250 281.644 M757.158 311.265 L 755.194 332.407 745.847 329.258 C 740.706 327.526,735.984 325.681,735.353 325.158 C 734.722 324.634,739.423 316.148,745.800 306.300 C 752.177 296.452,757.783 288.783,758.259 289.259 C 758.734 289.734,758.239 299.637,757.158 311.265 M622.500 325.530 C 586.827 330.422,580.512 332.230,597.627 332.652 C 615.441 333.091,657.569 327.129,661.350 323.634 C 664.883 320.369,657.503 320.729,622.500 325.530 M596.506 386.638 L 611.355 414.776 591.716 445.138 C 563.348 488.992,566.068 487.870,553.737 460.811 L 543.175 437.634 560.202 395.832 C 569.567 372.840,578.225 355.035,579.443 356.265 C 580.661 357.494,588.339 371.162,596.506 386.638 M660.094 390.119 L 669.693 402.238 653.819 420.869 C 645.089 431.116,636.969 440.647,635.774 442.049 C 634.580 443.450,629.968 438.395,625.526 430.815 L 617.449 417.033 631.376 397.517 C 639.036 386.783,646.472 378.000,647.899 378.000 C 649.327 378.000,654.815 383.454,660.094 390.119 M760.545 392.954 C 749.585 404.178,748.539 404.608,743.436 399.989 C 734.827 392.199,737.010 387.575,750.750 384.498 C 771.848 379.773,772.698 380.508,760.545 392.954 M769.724 406.360 C 767.680 417.255,762.980 419.780,756.607 413.407 C 753.816 410.616,754.806 407.944,761.038 401.438 C 770.681 391.373,772.358 392.323,769.724 406.360 M527.933 419.868 L 536.953 437.736 527.335 462.309 L 517.716 486.882 509.588 469.191 C 505.117 459.461,501.356 449.508,501.230 447.074 C 501.001 442.660,516.066 402.000,517.931 402.000 C 518.471 402.000,522.973 410.041,527.933 419.868 M485.448 426.808 C 493.618 446.520,493.619 446.510,483.427 475.073 L 475.015 498.645 465.177 486.223 L 455.339 473.801 465.172 442.401 C 470.580 425.130,475.880 411.000,476.950 411.000 C 478.020 411.000,481.844 418.114,485.448 426.808 M633.332 463.681 C 621.649 473.511,618.706 487.760,625.431 501.932 C 634.304 520.629,655.557 523.716,670.758 508.514 C 676.797 502.476,678.000 498.297,678.000 483.356 C 678.000 466.252,677.571 465.225,668.539 460.720 C 654.956 453.944,643.788 454.883,633.332 463.681 M729.939 459.214 C 702.232 467.501,700.947 506.599,728.010 517.906 C 750.786 527.423,768.359 514.477,770.368 486.702 C 771.381 472.708,770.573 468.551,766.057 464.497 C 758.869 458.044,742.068 455.587,729.939 459.214 M666.004 477.007 C 669.930 484.343,667.175 496.007,659.978 502.520 C 647.188 514.095,628.574 498.293,634.649 481.018 C 640.360 464.780,658.236 462.493,666.004 477.007 M757.443 472.871 C 762.904 478.333,761.449 491.703,754.136 503.250 C 745.255 517.274,720.000 506.506,720.000 488.695 C 720.000 472.453,746.026 461.454,757.443 472.871 M570.000 536.275 C 570.000 541.682,621.977 546.486,691.500 547.506 L 760.500 548.518 706.500 545.934 C 652.684 543.360,589.572 538.022,576.750 534.961 C 573.038 534.075,570.000 534.666,570.000 536.275 M447.000 542.285 C 447.000 545.034,521.271 549.454,524.750 546.913 C 528.138 544.439,520.445 543.357,485.250 541.359 C 459.543 539.900,447.000 540.203,447.000 542.285 M447.000 590.614 C 447.000 592.476,450.713 594.031,455.250 594.068 C 459.788 594.106,480.375 595.490,501.000 597.145 C 555.725 601.536,751.007 601.480,752.475 597.074 C 753.335 594.496,735.112 594.142,680.563 595.675 C 614.016 597.545,501.473 594.138,461.250 589.035 C 451.598 587.810,447.000 588.320,447.000 590.614 M621.000 637.495 C 714.225 639.976,796.127 642.746,803.005 643.650 C 814.974 645.224,824.928 652.072,820.983 656.017 C 819.088 657.912,383.485 645.485,381.480 643.480 C 380.883 642.883,382.218 640.332,384.447 637.811 C 389.730 631.837,407.519 631.813,621.000 637.495 M626.694 662.931 C 755.915 666.842,817.947 669.764,820.194 672.046 C 822.610 674.500,821.885 676.648,817.500 680.025 C 812.214 684.096,795.259 684.421,675.000 682.752 C 519.312 680.592,408.355 675.939,393.011 670.928 C 386.276 668.728,382.190 665.341,381.637 661.498 C 380.821 655.819,382.258 655.545,408.637 656.337 C 423.962 656.798,522.087 659.765,626.694 662.931 M499.121 729.750 C 466.215 854.990,416.070 1013.891,406.038 1024.715 C 397.496 1033.932,389.593 1033.944,378.917 1024.756 C 366.014 1013.651,367.931 998.967,392.073 924.000 C 403.498 888.525,424.917 821.384,439.672 774.797 L 466.500 690.094 488.032 690.047 L 509.565 690.000 499.121 729.750 M641.944 696.750 C 641.913 698.813,639.219 720.750,635.959 745.500 C 632.698 770.250,629.137 811.098,628.045 836.273 C 625.865 886.501,623.999 891.697,610.367 885.485 C 606.267 883.617,601.703 879.031,600.226 875.294 C 598.750 871.557,594.661 832.725,591.140 789.000 C 587.619 745.275,584.015 705.788,583.131 701.250 L 581.523 693.000 611.762 693.000 C 633.982 693.000,641.985 693.994,641.944 696.750 M754.993 705.000 C 778.951 772.788,855.000 1012.878,855.000 1020.725 C 855.000 1033.651,846.302 1042.479,836.091 1039.916 C 819.683 1035.798,814.647 1025.778,794.045 956.254 C 768.222 869.116,745.722 787.693,734.561 741.000 C 729.632 720.375,724.898 701.059,724.041 698.075 C 722.670 693.296,724.199 692.760,736.883 693.575 C 750.325 694.439,751.529 695.198,754.993 705.000 " stroke="none" fill="black" fill-rule="evenodd"/></svg>